<?xml version="1.0" encoding="utf-8"?>
<!-- Generator: Adobe Illustrator 24.2.1, SVG Export Plug-In . SVG Version: 6.00 Build 0)  -->
<svg version="1.1" id="Capa_1" xmlns="http://www.w3.org/2000/svg" xmlns:xlink="http://www.w3.org/1999/xlink" x="0px" y="0px"
	 viewBox="0 0 512 512" style="enable-background:new 0 0 512 512;" xml:space="preserve">
<style type="text/css">
	.st0{fill:#FFFFFF;}
</style>
<g>
	<path class="st0" d="M436.8,75.2C336.5-25.1,175.5-25.1,75.2,75.2c-100.3,100.3-100.3,261.2,0,361.6
		c100.3,100.3,261.2,100.3,361.6,0C537.1,336.5,537.1,175.5,436.8,75.2z M256,482C131.4,482,30,380.6,30,256S131.4,30,256,30
		s226,101.4,226,226S380.6,482,256,482z"/>
	<path class="st0" d="M329.6,173c-6.2-5.5-15.7-4.9-21.2,1.3c-5.5,6.2-4.9,15.7,1.3,21.2C327,210.8,337,232.9,337,256
		c0,44.7-36.3,81-81,81s-81-36.3-81-81c0-23.4,10.1-45.6,27.7-61c6.2-5.5,6.9-14.9,1.4-21.2c-5.5-6.2-14.9-6.9-21.2-1.4
		c-24.1,21.1-38,51.6-38,83.6c0,61.2,49.8,111,111,111s111-49.8,111-111C367,224.3,353.4,194,329.6,173z"/>
	<path class="st0" d="M256,231c8.3,0,15-6.7,15-15v-80c0-8.3-6.7-15-15-15c-8.3,0-15,6.7-15,15v80C241,224.3,247.7,231,256,231z"/>
</g>
</svg>
