<?xml version="1.0" standalone="no"?>
<!DOCTYPE svg PUBLIC "-//W3C//DTD SVG 20010904//EN"
 "http://www.w3.org/TR/2001/REC-SVG-20010904/DTD/svg10.dtd">
<svg version="1.0" xmlns="http://www.w3.org/2000/svg"
 width="277.000000pt" height="277.000000pt" viewBox="0 0 277.000000 277.000000"
 preserveAspectRatio="xMidYMid meet">
<metadata>
Created by potrace 1.11, written by Peter Selinger 2001-2013
</metadata>
<g transform="translate(0.000000,277.000000) scale(0.100000,-0.100000)"
fill="#000000" stroke="none">
<path d="M1139 2740 c-244 -43 -325 -115 -286 -251 16 -52 78 -166 121 -221
12 -14 43 -66 71 -115 157 -277 373 -339 551 -158 54 54 185 254 190 290 1 6
22 47 47 91 80 137 86 214 22 278 -46 47 -118 71 -265 90 -160 20 -316 19
-451 -4z"/>
<path d="M432 2394 c-91 -45 -249 -241 -335 -416 -66 -134 -87 -210 -87 -319
l0 -97 34 -30 c61 -53 85 -57 386 -57 266 0 277 1 335 24 74 29 158 110 174
168 39 138 -13 273 -245 637 -71 111 -159 142 -262 90z"/>
<path d="M2187 2405 c-27 -7 -62 -25 -78 -41 -29 -28 -129 -179 -129 -196 0
-4 -29 -58 -65 -120 -79 -137 -105 -208 -105 -286 0 -105 35 -169 123 -227 93
-60 134 -67 424 -63 252 3 259 4 307 28 120 61 116 200 -14 462 -58 117 -111
196 -200 303 -107 129 -172 163 -263 140z"/>
<path d="M147 1246 c-27 -7 -67 -26 -90 -43 l-42 -29 -3 -81 c-2 -62 2 -96 18
-145 35 -102 106 -245 174 -348 185 -277 331 -347 452 -218 37 39 179 268 235
378 106 211 64 373 -116 457 -56 25 -73 28 -240 34 -257 11 -333 9 -388 -5z"/>
<path d="M2065 1236 c-112 -19 -186 -66 -228 -145 -54 -98 -27 -239 80 -421
31 -52 56 -103 55 -113 -1 -27 97 -175 146 -219 37 -33 48 -38 92 -38 69 0
115 26 190 107 147 161 261 352 320 538 48 151 29 229 -68 277 -45 22 -58 23
-282 25 -149 1 -261 -3 -305 -11z"/>
<path d="M1273 811 c-112 -52 -161 -116 -371 -481 -32 -57 -37 -73 -37 -130 0
-72 17 -104 78 -145 77 -53 110 -56 459 -53 l323 3 68 33 c83 41 107 74 107
149 0 42 -9 69 -46 142 -26 50 -56 101 -69 113 -12 13 -47 66 -77 118 -77 131
-117 180 -182 225 -51 35 -63 39 -133 42 -62 3 -87 0 -120 -16z"/>
</g>
</svg>
